<svg width="1024" height="1024" viewBox="0 0 1024 1024" xmlns="http://www.w3.org/2000/svg">
<defs>
  <clipPath id="circleClip">
    <circle cx="512" cy="512" r="460"/>
  </clipPath>
  <linearGradient id="bgGrad" x1="0" y1="0" x2="1" y2="1">
    <stop offset="0%" stop-color="#111827"/>
    <stop offset="100%" stop-color="#0a0f1c"/>
  </linearGradient>
  <linearGradient id="brainGrad" x1="0" y1="0" x2="0" y2="1">
    <stop offset="0%" stop-color="#6BAAFF"/>
    <stop offset="100%" stop-color="#3B6FD4"/>
  </linearGradient>
  <linearGradient id="barGrad" x1="0" y1="0" x2="0" y2="1">
    <stop offset="0%" stop-color="#10B981"/>
    <stop offset="100%" stop-color="#059669"/>
  </linearGradient>
  <linearGradient id="ringGrad" x1="0" y1="0" x2="1" y2="1">
    <stop offset="0%" stop-color="#4F8EF7" stop-opacity="0.6"/>
    <stop offset="100%" stop-color="#10B981" stop-opacity="0.3"/>
  </linearGradient>
</defs>

<rect width="1024" height="1024" rx="230" fill="#0D1117"/>
<circle cx="512" cy="512" r="460" fill="none" stroke="url(#ringGrad)" stroke-width="3"/>
<circle cx="512" cy="512" r="440" fill="url(#bgGrad)"/>

<g clip-path="url(#circleClip)" opacity="0.06">
  <line x1="52" y1="330" x2="972" y2="330" stroke="#4F8EF7" stroke-width="1.5"/>
  <line x1="52" y1="450" x2="972" y2="450" stroke="#4F8EF7" stroke-width="1.5"/>
  <line x1="52" y1="570" x2="972" y2="570" stroke="#4F8EF7" stroke-width="1.5"/>
  <line x1="52" y1="690" x2="972" y2="690" stroke="#4F8EF7" stroke-width="1.5"/>
  <line x1="330" y1="52" x2="330" y2="972" stroke="#4F8EF7" stroke-width="1.5"/>
  <line x1="450" y1="52" x2="450" y2="972" stroke="#4F8EF7" stroke-width="1.5"/>
  <line x1="570" y1="52" x2="570" y2="972" stroke="#4F8EF7" stroke-width="1.5"/>
  <line x1="690" y1="52" x2="690" y2="972" stroke="#4F8EF7" stroke-width="1.5"/>
</g>

<g clip-path="url(#circleClip)">
  <rect x="270" y="648" width="78" height="138" rx="9" fill="#4F8EF7" opacity="0.55"/>
  <rect x="369" y="588" width="78" height="198" rx="9" fill="#4F8EF7" opacity="0.70"/>
  <rect x="468" y="516" width="78" height="270" rx="9" fill="#4F8EF7" opacity="0.85"/>
  <rect x="567" y="420" width="78" height="366" rx="9" fill="url(#barGrad)"/>
  <rect x="666" y="540" width="78" height="246" rx="9" fill="#4F8EF7" opacity="0.60"/>
  <polyline points="309,648 408,582 507,508 606,410 705,528"
    fill="none" stroke="#10B981" stroke-width="7"
    stroke-linecap="round" stroke-linejoin="round"/>
  <circle cx="309" cy="648" r="11" fill="#10B981"/>
  <circle cx="408" cy="582" r="11" fill="#10B981"/>
  <circle cx="507" cy="508" r="11" fill="#10B981"/>
  <circle cx="606" cy="410" r="14" fill="#10B981" stroke="#0a0f1c" stroke-width="4"/>
  <circle cx="705" cy="528" r="11" fill="#10B981"/>
</g>

<g transform="translate(512,330)">
  <path d="M-15,-122 C-15,-152 -61,-168 -91,-145 C-122,-122 -130,-84 -115,-53 C-100,-23 -84,0 -69,15 C-53,31 -30,33 -15,27 Z" fill="url(#brainGrad)" opacity="0.95"/>
  <path d="M15,-122 C15,-152 61,-168 91,-145 C122,-122 130,-84 115,-53 C100,-23 84,0 69,15 C53,31 30,33 15,27 Z" fill="url(#brainGrad)" opacity="0.95"/>
  <rect x="-12" y="-122" width="24" height="146" rx="12" fill="#4F8EF7" opacity="0.5"/>
  <line x1="-91" y1="-92" x2="-46" y2="-61" stroke="#fff" stroke-width="3" stroke-linecap="round" opacity="0.4"/>
  <line x1="-107" y1="-46" x2="-53" y2="-31" stroke="#fff" stroke-width="3" stroke-linecap="round" opacity="0.4"/>
  <line x1="-84" y1="0"  x2="-38" y2="-8"  stroke="#fff" stroke-width="3" stroke-linecap="round" opacity="0.4"/>
  <line x1="91" y1="-92" x2="46" y2="-61" stroke="#fff" stroke-width="3" stroke-linecap="round" opacity="0.4"/>
  <line x1="107" y1="-46" x2="53" y2="-31" stroke="#fff" stroke-width="3" stroke-linecap="round" opacity="0.4"/>
  <line x1="84" y1="0"  x2="38" y2="-8"  stroke="#fff" stroke-width="3" stroke-linecap="round" opacity="0.4"/>
  <circle cx="-91" cy="-92" r="8"  fill="#6BAAFF" opacity="0.9"/>
  <circle cx="-107" cy="-46" r="7" fill="#6BAAFF" opacity="0.85"/>
  <circle cx="-84"  cy="0"   r="7" fill="#6BAAFF" opacity="0.85"/>
  <circle cx="91"  cy="-92"  r="8" fill="#6BAAFF" opacity="0.9"/>
  <circle cx="107" cy="-46"  r="7" fill="#6BAAFF" opacity="0.85"/>
  <circle cx="84"  cy="0"    r="7" fill="#6BAAFF" opacity="0.85"/>
  <circle cx="0"   cy="-130" r="8" fill="#fff"    opacity="0.55"/>
</g>

<line x1="232" y1="800" x2="792" y2="800" stroke="#4F8EF7" stroke-width="1.5" opacity="0.2"/>
<text x="512" y="870" text-anchor="middle"
  font-family="'Helvetica Neue', Arial, sans-serif"
  font-size="68" font-weight="700" letter-spacing="2" fill="#E8EAF0">Presales</text>
<text x="512" y="940" text-anchor="middle"
  font-family="'Helvetica Neue', Arial, sans-serif"
  font-size="46" font-weight="400" letter-spacing="10" fill="#4F8EF7">AI</text>

<circle cx="512" cy="68"  r="6" fill="#4F8EF7" opacity="0.6"/>
<circle cx="512" cy="956" r="6" fill="#4F8EF7" opacity="0.6"/>
<circle cx="68"  cy="512" r="6" fill="#4F8EF7" opacity="0.6"/>
<circle cx="956" cy="512" r="6" fill="#4F8EF7" opacity="0.6"/>
</svg>
